<?xml version="1.0" encoding="UTF-8" standalone="no"?>
<!-- Created with Inkscape (http://www.inkscape.org/) -->

<svg
   xmlns:dc="http://purl.org/dc/elements/1.1/"
   xmlns:cc="http://creativecommons.org/ns#"
   xmlns:rdf="http://www.w3.org/1999/02/22-rdf-syntax-ns#"
   xmlns:svg="http://www.w3.org/2000/svg"
   xmlns="http://www.w3.org/2000/svg"
   xmlns:sodipodi="http://sodipodi.sourceforge.net/DTD/sodipodi-0.dtd"
   xmlns:inkscape="http://www.inkscape.org/namespaces/inkscape"
   width="1280.2607"
   height="305.19714"
   viewBox="0 0 1280.2607 305.19714"
   id="svg2"
   version="1.1"
   inkscape:version="0.91 r13725"
   sodipodi:docname="logo.svg">
  <defs
     id="defs4" />
  <sodipodi:namedview
     id="base"
     pagecolor="#ffffff"
     bordercolor="#666666"
     borderopacity="1.0"
     inkscape:pageopacity="0.0"
     inkscape:pageshadow="2"
     inkscape:zoom="0.93"
     inkscape:cx="665.60193"
     inkscape:cy="158.09912"
     inkscape:document-units="px"
     inkscape:current-layer="layer1"
     showgrid="false"
     inkscape:window-width="1920"
     inkscape:window-height="1053"
     inkscape:window-x="0"
     inkscape:window-y="0"
     inkscape:window-maximized="1"
     units="px"
     fit-margin-top="5"
     fit-margin-left="5"
     fit-margin-right="5"
     fit-margin-bottom="5"
     showborder="false" />
  <metadata
     id="metadata7">
    <rdf:RDF>
      <cc:Work
         rdf:about="">
        <dc:format>image/svg+xml</dc:format>
        <dc:type
           rdf:resource="http://purl.org/dc/dcmitype/StillImage" />
        <dc:title></dc:title>
      </cc:Work>
    </rdf:RDF>
  </metadata>
  <g
     inkscape:label="Layer 1"
     inkscape:groupmode="layer"
     id="layer1"
     transform="translate(575.16194,-780.65406)">
    <g
       transform="matrix(9.5526243,0,0,9.5526243,-1803.714,-2728.4143)"
       style="font-style:normal;font-variant:normal;font-weight:normal;font-stretch:normal;font-size:40px;line-height:125%;font-family:'Ubuntu Condensed';-inkscape-font-specification:'Ubuntu Condensed, ';letter-spacing:0px;word-spacing:0px;fill:#000000;fill-opacity:1;stroke:none;stroke-width:1px;stroke-linecap:butt;stroke-linejoin:miter;stroke-opacity:1"
       id="flowRoot4136">
      <path
         fill="#ffffff"
         d="m 145.05227,370.91318 0,3.08 -6.16,0 0,24.64 -3.6,0 0,-24.64 -6.16,0 0,-3.08 15.92,0 z"
         id="path4282"
         inkscape:connector-curvature="0" />
    </g>
    <g
       style="font-style:normal;font-variant:normal;font-weight:normal;font-stretch:normal;font-size:382.10494995px;line-height:125%;font-family:'Ubuntu Condensed';-inkscape-font-specification:'Ubuntu Condensed, ';letter-spacing:0px;word-spacing:0px;fill:#000000;fill-opacity:1;stroke:none;stroke-width:1px;stroke-linecap:butt;stroke-linejoin:miter;stroke-opacity:1"
       id="text4144">
      <path
         fill="#ffffff"
         d="m -253.78438,810.80235 c 17.83157,-4.33053 35.28103,-6.49579 52.34838,-6.49579 13.24631,0 25.21893,1.65579 35.91786,4.96737 10.95368,3.05684 20.25157,8.0242 27.89367,14.90209 7.89683,6.62315 13.88314,15.2842 17.95893,25.98314 4.33052,10.69894 6.49578,23.56314 6.49578,38.5926 0,15.2842 -2.16526,28.40314 -6.49578,39.35681 -4.33053,10.69894 -10.44421,19.48735 -18.34104,26.36524 -7.89683,6.62315 -17.44946,11.46315 -28.65787,14.51999 -10.95367,3.05684 -23.18103,4.58526 -36.68208,4.58526 l -16.0484,0 -1,108.35144 -32.38945,0 z m 34.38945,132.59042 13.75577,0 c 8.66105,0 16.43052,-0.89158 23.30841,-2.67474 7.13262,-2.03789 13.11893,-5.2221 17.95893,-9.55262 4.83999,-4.33053 8.53367,-9.93473 11.08104,-16.81262 2.54737,-6.87789 3.82105,-15.41156 3.82105,-25.60103 0,-10.18947 -1.27368,-18.72314 -3.82105,-25.60103 -2.54737,-7.13263 -6.11368,-12.73683 -10.69894,-16.81262 -4.33052,-4.33053 -9.67999,-7.38737 -16.0484,-9.17052 -6.36842,-1.78315 -13.37368,-2.67473 -21.01578,-2.67473 -6.62315,0 -12.73682,0.3821 -18.34103,1.14631 z"
         id="path4285"
         inkscape:connector-curvature="0"
         sodipodi:nodetypes="cscccscccscccccscsssccsscc" />
    </g>
    <g
       style="font-style:normal;font-variant:normal;font-weight:normal;font-stretch:normal;font-size:382.10494995px;line-height:125%;font-family:'Ubuntu Condensed';-inkscape-font-specification:'Ubuntu Condensed, ';letter-spacing:0px;word-spacing:0px;fill:#000000;fill-opacity:1;stroke:none;stroke-width:1px;stroke-linecap:butt;stroke-linejoin:miter;stroke-opacity:1"
       id="text4148">
      <path
         fill="#ffffff"
         d="m -40.8869,1051.4291 q 20.633667,0 31.7147105,-11.4631 11.4631485,-11.4632 11.4631485,-30.9505 0,-10.31686 -3.4389445,-18.34107 -3.4389446,-8.0242 -9.1705185,-14.51998 -5.34947,-6.49579 -12.609464,-11.84526 -7.259994,-5.34947 -14.902093,-10.69894 -8.788414,-6.11367 -18.341037,-12.99156 -9.552624,-6.87789 -17.576828,-16.04841 -7.642099,-9.17052 -12.609463,-21.39788 -4.967365,-12.22736 -4.967365,-28.65787 0,-16.04841 5.34947,-29.03998 5.731574,-12.99156 15.284198,-22.16208 9.934728,-9.17052 23.308402,-14.13789 13.755778,-4.96736 29.422081,-4.96736 15.2841977,0 28.275766,3.82105 12.991568,3.82105 21.779982,9.17052 l -10.698938,27.12945 q -8.024204,-5.34947 -17.5768282,-8.0242 -9.1705188,-3.05684 -19.4873528,-3.05684 -18.723142,0 -30.186291,10.31683 -11.081043,9.93473 -11.081043,29.42208 0,10.69894 3.438944,18.72314 3.82105,8.02421 9.552624,14.51999 6.113679,6.49579 13.755778,11.84525 8.024204,5.34947 16.812618,11.08105 8.7884139,5.73157 17.9589327,12.60946 9.1705193,6.87789 16.4305133,16.04841 7.642099,8.78841 12.227358,21.01577 4.967364,11.84525 4.967364,28.27572 0,14.9021 -4.585259,28.2758 -4.585259,13.3737 -14.519988,23.6905 -9.5526239,9.9347 -24.454717,16.0484 -14.519988,5.7316 -34.389445,5.7316 -18.341038,0 -32.096816,-4.2032 -13.755778,-4.2031 -24.454717,-11.081 l 10.698939,-27.5116 q 9.934728,6.1137 20.251562,9.9348 10.698938,3.4389 24.454717,3.4389 z"
         id="path4288"
         inkscape:connector-curvature="0" />
    </g>
    <g
       style="font-style:normal;font-variant:normal;font-weight:normal;font-stretch:normal;font-size:382.10494995px;line-height:125%;font-family:'Ubuntu Condensed';-inkscape-font-specification:'Ubuntu Condensed, ';letter-spacing:0px;word-spacing:0px;fill:#000000;fill-opacity:1;stroke:none;stroke-width:1px;stroke-linecap:butt;stroke-linejoin:miter;stroke-opacity:1"
       id="text4152">
      <path
         fill="#ffffff"
         d="m 190.40388,806.9813 34.38945,0 0,264.7987 -34.38945,0 0,-123.03776 -87.11993,0 0,123.03776 -34.389443,0 0,-264.7987 34.389443,0 0,111.95675 87.11993,0 0,-111.95675 z"
         id="path4291"
         inkscape:connector-curvature="0" />
    </g>
    <g
       style="font-style:normal;font-variant:normal;font-weight:normal;font-stretch:normal;font-size:382.10494995px;line-height:125%;font-family:'Ubuntu Condensed';-inkscape-font-specification:'Ubuntu Condensed, ';letter-spacing:0px;word-spacing:0px;fill:#000000;fill-opacity:1;stroke:none;stroke-width:1px;stroke-linecap:butt;stroke-linejoin:miter;stroke-opacity:1"
       id="text4156">
      <path
         fill="#ffffff"
         d="m 267.75659,1071.78 0,-264.7987 118.83464,0 0,29.42208 -84.44519,0 0,82.15256 76.42099,0 0,28.65788 -76.42099,0 0,95.14408 90.55887,0 0,29.4221 -124.94832,0 z"
         id="path4294"
         inkscape:connector-curvature="0" />
    </g>
    <g
       style="font-style:normal;font-variant:normal;font-weight:normal;font-stretch:normal;font-size:382.10494995px;line-height:125%;font-family:'Ubuntu Condensed';-inkscape-font-specification:'Ubuntu Condensed, ';letter-spacing:0px;word-spacing:0px;fill:#000000;fill-opacity:1;stroke:none;stroke-width:1px;stroke-linecap:butt;stroke-linejoin:miter;stroke-opacity:1"
       id="text4160">
      <path
         fill="#ffffff"
         d="m 545.20814,1042.3579 0,29.4221 -118.07043,0 0,-264.7987 34.38944,0 0,235.3766 83.68099,0 z"
         id="path4297"
         inkscape:connector-curvature="0" />
    </g>
    <g
       style="font-style:normal;font-variant:normal;font-weight:normal;font-stretch:normal;font-size:382.10494995px;line-height:125%;font-family:'Ubuntu Condensed';-inkscape-font-specification:'Ubuntu Condensed, ';letter-spacing:0px;word-spacing:0px;fill:#000000;fill-opacity:1;stroke:none;stroke-width:1px;stroke-linecap:butt;stroke-linejoin:miter;stroke-opacity:1"
       id="text4164">
      <path
         fill="#ffffff"
         d="m 581.26417,1071.7791 0,-264.79878 118.83464,0 0,29.42208 -84.44519,0 0,83.29888 74.89257,0 0,28.65787 -74.89257,0 0,123.41995 -34.38945,0 z"
         id="path4300"
         inkscape:connector-curvature="0" />
    </g>
    <path
       style="fill:#ffffff;fill-opacity:1;stroke:none;stroke-linejoin:miter"
       d="m -384.9787,945.83313 153.10469,0 0,27.46765 -153.10469,0 z"
       id="rect4170"
       inkscape:connector-curvature="0"
       sodipodi:nodetypes="ccccc" />
    <path
       style="fill:none;fill-opacity:1;stroke:#ffffff;stroke-width:22.2505188;stroke-linejoin:miter;stroke-miterlimit:4;stroke-dasharray:none;stroke-opacity:1"
       d="m -286.46316,848.72516 a 51.945833,51.945833 0 0 1 -51.94584,51.94583 51.945833,51.945833 0 0 1 -51.94583,-51.94583 51.945833,51.945833 0 0 1 51.94583,-51.94584 51.945833,51.945833 0 0 1 51.94584,51.94584 z"
       id="path4176"
       inkscape:connector-curvature="0" />
  </g>
</svg>
